<svg xmlns="http://www.w3.org/2000/svg" viewBox="0 0 512 512" role="img" aria-labelledby="title desc">
  <title id="title">PrayerTimes icon</title>
  <desc id="desc">A mosque silhouette inside a rounded green square.</desc>
  <defs>
    <linearGradient id="bg" x1="0" y1="0" x2="1" y2="1">
      <stop offset="0%" stop-color="#022c22"/>
      <stop offset="55%" stop-color="#065f46"/>
      <stop offset="100%" stop-color="#10b981"/>
    </linearGradient>
    <linearGradient id="shine" x1="0" y1="0" x2="0" y2="1">
      <stop offset="0%" stop-color="#ecfdf5" stop-opacity="0.95"/>
      <stop offset="100%" stop-color="#d1fae5" stop-opacity="0.88"/>
    </linearGradient>
  </defs>
  <rect width="512" height="512" rx="132" fill="url(#bg)"/>
  <circle cx="392" cy="118" r="24" fill="#fef3c7"/>
  <path d="M256 114c24 0 44 20 44 44 0 20-14 37-32 42v22h60v34h-18v110h44v38H158v-38h44V256h-18v-34h60v-22c-18-5-32-22-32-42 0-24 20-44 44-44Z" fill="url(#shine)"/>
  <path d="M256 154a17 17 0 1 0 0-.1Zm-86 250h172M202 366h108M230 256h52v110h-52Z" fill="none" stroke="#022c22" stroke-linecap="round" stroke-linejoin="round" stroke-width="18"/>
  <path d="M344 210c0-49-39-88-88-88s-88 39-88 88" fill="none" stroke="#a7f3d0" stroke-linecap="round" stroke-width="16"/>
</svg>
